<svg width="24" height="25" viewBox="0 0 24 25" fill="none" xmlns="http://www.w3.org/2000/svg">
<path d="M20.4847 3.90563C25.1714 8.59229 25.1714 16.1896 20.4847 20.8763C15.798 25.563 8.20069 25.563 3.51402 20.8763C-1.17264 16.1896 -1.17264 8.59229 3.51402 3.90563C8.20069 -0.781042 15.798 -0.781042 20.4847 3.90563ZM10.0547 17.1643L7.22669 14.3363L5.98869 18.4023L10.0547 17.1643ZM16.5954 10.6243L13.7674 7.79563L7.75669 13.8056L10.5854 16.6343L16.5954 10.6236V10.6243ZM19.0707 7.44163L16.9494 5.32029C16.776 5.14696 16.506 5.12763 16.3114 5.26296L16.242 5.32029L14.474 7.08829L17.3027 9.91696L19.0707 8.14896C19.244 7.97563 19.2634 7.70629 19.128 7.51096L19.0707 7.44163Z" fill="#1C1C1C"/>
</svg>
